<svg width="315" height="53" viewBox="0 0 315 53" fill="none" xmlns="http://www.w3.org/2000/svg">
<path fill-rule="evenodd" clip-rule="evenodd" d="M308.519 0H5.51935V0.28061L0.0599393 2.11365L5.51935 4.38835V4.41135L0 7.58786L5.23124 10.6177L0 13.6284L5.51935 16.8251V17.4316L0 20.6081L5.51935 23.8048V24.4114L0 27.5879L5.51935 30.7846V31.4519L0 34.6284L5.51935 37.8251V38.4316L0 41.6081L5.51935 44.8048V45.4114L0 48.5879L5.51935 51.7846V52H5.89131L6.05466 52.0946L6.05479 52H308.015V52.016L308.063 52H308.519V51.8467L314.019 50L308.537 47.7156L314.079 44.5258L308.848 41.4959L314.079 38.4853L308.519 35.265V34.7054L314.079 31.5055L308.519 28.2853V27.7256L314.079 24.5258L308.519 21.3056V20.6851L314.079 17.4853L308.519 14.265V13.7054L314.079 10.5055L308.519 7.28531V6.72565L314.079 3.52579L308.519 0.305573V0Z" fill="#BAE6E9"/>
</svg>
