<svg width="364" height="28" viewBox="0 0 364 28" fill="none" xmlns="http://www.w3.org/2000/svg">
<path fill-rule="evenodd" clip-rule="evenodd" d="M364 4V8.53906L335.807 27.2792H319.392L360.401 0.0198902C362.422 0.221232 364 1.92634 364 4ZM355.435 27.2792H340.804L364 11.8605V21.5857L355.435 27.2792ZM342.588 0H355.435L314.395 27.2792H301.549L342.588 0ZM360.473 27.2515C361.764 27.0995 362.866 26.3331 363.48 25.2528L360.473 27.2515ZM337.592 0H321.176L280.137 27.2792H296.552L337.592 0ZM280.137 0H296.552L255.513 27.2792H239.098L280.137 0ZM275.14 27.2792H260.51L301.549 0H316.18L275.14 27.2792ZM258.725 0H275.14L234.101 27.2792H217.686L258.725 9.84595e-05L258.725 0ZM169.866 0H153.451L112.412 27.2792H128.827L169.866 0ZM133.823 27.2792H150.239L191.278 0H174.863L133.823 27.2792ZM112.412 0H128.826L87.7872 27.2792H71.3724L112.412 0ZM107.415 27.2792H92.784L133.823 0H148.454L107.415 27.2792ZM91.0001 0H107.415L66.3756 27.2792H49.9609L91.0001 0ZM212.69 27.2792H196.274L237.314 0H253.729L212.69 27.2792ZM196.275 0H212.69L171.65 27.2792H155.235L196.275 0ZM191.278 27.2792H176.647L217.686 0H232.317L191.278 27.2792ZM86.0033 0H69.5882L28.549 27.2792H44.9641L86.0033 0ZM28.549 0H44.9638L3.92565 27.2785C1.75082 27.2389 0 25.4635 0 23.2792V18.9768L28.549 0ZM23.5522 27.2792H8.92144L49.9607 0H64.5914L23.5522 27.2792ZM4 0H23.5522L0 15.6554V4C0 1.79087 1.79086 0 4 0Z" fill="#FFFBBF"/>
</svg>
