<svg width="187" height="27" viewBox="0 0 187 27" fill="none" xmlns="http://www.w3.org/2000/svg">
<path fill-rule="evenodd" clip-rule="evenodd" d="M183.69 0.48877H3.28618V0.627989L0.0356865 1.53765L3.28618 2.6665V2.67795L0 4.25432L3.11464 5.75791L0 7.252L3.28618 8.83841V9.13937L0 10.7157L3.28618 12.3022V12.6032L0 14.1796L3.28618 15.766V16.0971L0 17.6734L3.28618 19.2599V19.5608L0 21.1372L3.28618 22.7236V23.0246L0 24.601L3.28618 26.1874V26.2943H3.50759L3.60489 26.3413L3.60497 26.2943H183.389L183.389 26.3022L183.418 26.2943H183.69V26.2182L186.964 25.3018L183.7 24.1681L187 22.5852L183.885 21.0816L187 19.5875L183.69 17.9894V17.7117L187 16.1237L183.69 14.5257V14.2479L187 12.66L183.69 11.0619V10.7539L187 9.16597L183.69 7.56791V7.29024L187 5.70228L183.69 4.10422V3.8265L187 2.23854L183.69 0.640474V0.48877Z" fill="#FFD4E3"/>
</svg>
